<svg version="1.2" xmlns="http://www.w3.org/2000/svg" viewBox="0 0 747 691" width="747" height="691">
	<title>&lt;Compound Path&gt;</title>
	<style>
		.s0 { opacity: .5;fill: #ff413d } 
		.s1 { fill: #ff413d } 
		.s2 { opacity: .8;fill: #ff413d } 
		.s3 { opacity: .3;fill: #ff413d } 
	</style>
	<path id="&lt;Compound Path&gt;" fill-rule="evenodd" class="s0" d="m697.3 467.6c-11.8 0-21.3-9.5-21.3-21.3 0-11.8 9.5-21.3 21.3-21.3 11.8 0 21.3 9.5 21.3 21.3 0 11.8-9.5 21.3-21.3 21.3zm12.2-21.3c0-6.7-5.5-12.2-12.2-12.2-6.7 0-12.2 5.5-12.2 12.2 0 6.7 5.5 12.2 12.2 12.2 6.7 0 12.2-5.5 12.2-12.2z"/>
	<path id="&lt;Compound Path&gt;" class="s1" d="m709.5 446.3c0 6.7-5.5 12.2-12.2 12.2-6.7 0-12.2-5.5-12.2-12.2 0-6.7 5.5-12.2 12.2-12.2v-9.1c-11.7 0-21.3 9.6-21.3 21.3 0 11.7 9.6 21.3 21.3 21.3 11.7 0 21.3-9.6 21.3-21.3z"/>
	<g id="&lt;Group&gt;">
		<path id="&lt;Compound Path&gt;" fill-rule="evenodd" class="s0" d="m696.5 393.9c-11.9 0-21.5-9.6-21.5-21.4 0-11.9 9.6-21.5 21.5-21.5 11.8 0 21.4 9.6 21.4 21.5 0 11.8-9.6 21.4-21.4 21.4zm12.3-21.4c0-6.8-5.5-12.3-12.3-12.3-6.8 0-12.3 5.5-12.3 12.3 0 6.8 5.5 12.3 12.3 12.3 6.8 0 12.3-5.5 12.3-12.3z"/>
		<path id="&lt;Compound Path&gt;" class="s1" d="m675 372.5h9.2c0-6.8 5.5-12.3 12.3-12.3v-9.2c-11.9 0-21.5 9.6-21.5 21.5z"/>
		<path id="&lt;Path&gt;" class="s1" d="m5447.1 43.8h-35.8v48.3h35.8z"/>
		<path id="&lt;Path&gt;" class="s1" d="m5514.4 87.3l-25.3-25.3-34.2 34.2 25.3 25.3z"/>
		<path id="&lt;Path&gt;" class="s1" d="m5531.2 165.7v-35.7h-48.4v35.7z"/>
		<path id="&lt;Path&gt;" class="s1" d="m5409.2 249.8h35.8v-48.3h-35.8z"/>
		<path id="&lt;Path&gt;" class="s1" d="m5341.9 206.3l25.3 25.2 34.2-34.2-25.3-25.2z"/>
		<path id="&lt;Path&gt;" class="s1" d="m5325.1 127.9v35.7h48.4v-35.7z"/>
		<path id="&lt;Path&gt;" class="s1" d="m5368.7 60.6l-25.3 25.2 34.2 34.2 25.3-25.2z"/>
	</g>
	<path id="&lt;Compound Path&gt;" fill-rule="evenodd" class="s0" d="m675 690.1h-614.9v-527.3l-59.6-59.7v-102.1h288.2l45.2 45.2h341.1v130.8l71.3 69.3v250.6l-0.5 0.5-70.8 70.8zm-611.9-3h608.9v-120.1l71.3-71.3v-248.1l-71.3-69.4v-129h-339.3l-45.3-45.2h-283.9v97.9l59.6 59.6z"/>
	<path id="&lt;Compound Path&gt;" fill-rule="evenodd" class="s2" d="m663.8 678.9h-592.5v-520.8l-59.6-59.6v-86.3h272.3l45.3 45.3h334.5v124.2l71.2 69.4v241.2l-71.2 71.2zm-587.5-5h582.5v-112.4l71.2-71.2v-237.1l-71.2-69.3v-121.4h-331.6l-45.3-45.2h-265.2v79.2l59.6 59.6z"/>
	<path id="&lt;Compound Path&gt;" fill-rule="evenodd" class="s3" d="m634.4 650.1h-534.1v-534.1h534.1zm-528-6.1h521.9v-521.9h-521.9z"/>
	<path id="&lt;Compound Path&gt;" fill-rule="evenodd" class="s1" d="m695 319c-11.6 0-21-9.4-21-21 0-11.6 9.4-21 21-21 11.6 0 21 9.4 21 21 0 11.6-9.4 21-21 21zm12-21c0-6.7-5.3-12-12-12-6.7 0-12 5.3-12 12 0 6.7 5.3 12 12 12 6.7 0 12-5.3 12-12z"/>
</svg>